<svg width="27" height="28" viewBox="0 0 27 28" fill="none" xmlns="http://www.w3.org/2000/svg">
<path d="M13.478 7.424C14.4167 7.424 15.2453 7.60733 15.964 7.974C16.6973 8.34067 17.262 8.86867 17.658 9.558C18.0687 10.2327 18.274 11.0173 18.274 11.912C18.274 13.496 17.7827 14.662 16.8 15.41C15.832 16.1433 14.5047 16.51 12.818 16.51L12.752 18.93H11.432L11.344 15.41H11.916C13.4267 15.41 14.6147 15.1753 15.48 14.706C16.36 14.222 16.8 13.2907 16.8 11.912C16.8 10.944 16.492 10.174 15.876 9.602C15.2747 9.03 14.4753 8.744 13.478 8.744C12.4807 8.744 11.6887 9.01533 11.102 9.558C10.5153 10.1007 10.222 10.8413 10.222 11.78H8.748C8.748 10.9 8.946 10.1373 9.342 9.492C9.75267 8.832 10.31 8.326 11.014 7.974C11.7327 7.60733 12.554 7.424 13.478 7.424ZM12.092 23.11C11.7693 23.11 11.498 23 11.278 22.78C11.0727 22.56 10.97 22.2887 10.97 21.966C10.97 21.6433 11.0727 21.3793 11.278 21.174C11.498 20.954 11.7693 20.844 12.092 20.844C12.4 20.844 12.6567 20.954 12.862 21.174C13.082 21.3793 13.192 21.6433 13.192 21.966C13.192 22.2887 13.082 22.56 12.862 22.78C12.6567 23 12.4 23.11 12.092 23.11Z" fill="black"/>
<circle cx="13.5" cy="14.5" r="13" stroke="black"/>
</svg>
